<?xml version="1.0" encoding="UTF-8"?>
<svg width="200" height="200" viewBox="0 0 200 200" fill="none" xmlns="http://www.w3.org/2000/svg">
  <!-- Background Circle -->
  <circle cx="100" cy="100" r="100" fill="#FDF2F8"/>
  
  <!-- Hair -->
  <path d="M100 50C70 50 60 80 60 110C60 140 80 150 100 150C120 150 140 140 140 110C140 80 130 50 100 50Z" fill="#4B5563"/>
  
  <!-- Face -->
  <circle cx="100" cy="100" r="35" fill="#FCD7E5"/>
  
  <!-- Eyes -->
  <circle cx="85" cy="95" r="5" fill="#1F2937"/>
  <circle cx="115" cy="95" r="5" fill="#1F2937"/>
  
  <!-- Smile -->
  <path d="M85 110C85 110 90 120 100 120C110 120 115 110 115 110" stroke="#1F2937" stroke-width="3" stroke-linecap="round"/>
  
  <!-- Blush -->
  <circle cx="75" cy="105" r="5" fill="#FDA4AF" fill-opacity="0.5"/>
  <circle cx="125" cy="105" r="5" fill="#FDA4AF" fill-opacity="0.5"/>
</svg>
